<svg width="44" height="44" viewBox="0 0 44 44" fill="none" xmlns="http://www.w3.org/2000/svg">
<path d="M29.3333 5.5C31.7645 5.5 34.0961 6.46577 35.8151 8.18485C37.5342 9.90394 38.5 12.2355 38.5 14.6667V29.3333C38.5 31.7645 37.5342 34.0961 35.8151 35.8151C34.0961 37.5342 31.7645 38.5 29.3333 38.5H14.6667C12.2355 38.5 9.90394 37.5342 8.18485 35.8151C6.46577 34.0961 5.5 31.7645 5.5 29.3333V14.6667C5.5 12.2355 6.46577 9.90394 8.18485 8.18485C9.90394 6.46577 12.2355 5.5 14.6667 5.5H29.3333ZM22 14.6667C20.0551 14.6667 18.1898 15.4393 16.8146 16.8146C15.4393 18.1898 14.6667 20.0551 14.6667 22C14.6667 23.9449 15.4393 25.8102 16.8146 27.1855C18.1898 28.5607 20.0551 29.3333 22 29.3333C23.9449 29.3333 25.8102 28.5607 27.1855 27.1855C28.5607 25.8102 29.3333 23.9449 29.3333 22C29.3333 20.0551 28.5607 18.1898 27.1855 16.8146C25.8102 15.4393 23.9449 14.6667 22 14.6667ZM22 18.3333C22.9725 18.3333 23.9051 18.7196 24.5927 19.4073C25.2804 20.0949 25.6667 21.0275 25.6667 22C25.6667 22.9725 25.2804 23.9051 24.5927 24.5927C23.9051 25.2804 22.9725 25.6667 22 25.6667C21.0275 25.6667 20.0949 25.2804 19.4073 24.5927C18.7196 23.9051 18.3333 22.9725 18.3333 22C18.3333 21.0275 18.7196 20.0949 19.4073 19.4073C20.0949 18.7196 21.0275 18.3333 22 18.3333ZM30.25 11.9167C29.7638 11.9167 29.2975 12.1098 28.9536 12.4536C28.6098 12.7975 28.4167 13.2638 28.4167 13.75C28.4167 14.2362 28.6098 14.7025 28.9536 15.0464C29.2975 15.3902 29.7638 15.5833 30.25 15.5833C30.7362 15.5833 31.2025 15.3902 31.5464 15.0464C31.8902 14.7025 32.0833 14.2362 32.0833 13.75C32.0833 13.2638 31.8902 12.7975 31.5464 12.4536C31.2025 12.1098 30.7362 11.9167 30.25 11.9167Z" fill="black"/>
</svg>
