<svg width="40" height="40" viewBox="0 0 40 40" fill="none" xmlns="http://www.w3.org/2000/svg">
<path d="M11.5666 8.33332C11.5661 9.21738 11.2145 10.065 10.5891 10.6899C9.96365 11.3147 9.11562 11.6654 8.23157 11.665C7.34751 11.6645 6.49984 11.3129 5.87503 10.6875C5.25023 10.0621 4.89946 9.21404 4.8999 8.32999C4.90034 7.44593 5.25196 6.59826 5.87739 5.97345C6.50283 5.34865 7.35085 4.99788 8.2349 4.99832C9.11896 4.99876 9.96663 5.35038 10.5914 5.97581C11.2162 6.60124 11.567 7.44927 11.5666 8.33332ZM11.6666 14.1333H4.9999V35H11.6666V14.1333ZM22.1999 14.1333H15.5666V35H22.1332V24.05C22.1332 17.95 30.0832 17.3833 30.0832 24.05V35H36.6666V21.7833C36.6666 11.5 24.8999 11.8833 22.1332 16.9333L22.1999 14.1333Z" fill="black"/>
</svg>
