<svg width="42" height="42" viewBox="0 0 42 42" fill="none" xmlns="http://www.w3.org/2000/svg">
<path d="M29.05 10.185C27.8541 8.81917 27.1949 7.06545 27.195 5.25H21.7875V26.95C21.7467 28.1246 21.2512 29.2374 20.4056 30.0536C19.5599 30.8699 18.4303 31.3257 17.255 31.325C14.77 31.325 12.705 29.295 12.705 26.775C12.705 23.765 15.61 21.5075 18.6025 22.435V16.905C12.565 16.1 7.28003 20.79 7.28003 26.775C7.28003 32.6025 12.11 36.75 17.2375 36.75C22.7325 36.75 27.195 32.2875 27.195 26.775V15.7675C29.3878 17.3422 32.0204 18.1871 34.72 18.1825V12.775C34.72 12.775 31.43 12.9325 29.05 10.185Z" fill="black"/>
</svg>
